<svg width="280" height="60" viewBox="0 0 280 60" fill="none" xmlns="http://www.w3.org/2000/svg">
<path d="M31 30L253 30" stroke="#E5E5E5"/>
<circle cx="30" cy="30" r="29.5" fill="white" stroke="#E5E5E5"/>
<circle cx="30" cy="30" r="25" fill="#E5E5E5"/>
<path d="M26.6323 23.624V21.056H32.0563V38H29.1763V23.624H26.6323Z" fill="#898989"/>
<circle cx="140" cy="30" r="25" fill="#E5E5E5"/>
<path d="M134.271 36.728C137.103 34.856 139.359 32.976 141.039 31.088C142.735 29.2 143.583 27.432 143.583 25.784C143.583 24.744 143.311 23.904 142.767 23.264C142.223 22.608 141.343 22.28 140.127 22.28C138.879 22.28 137.927 22.672 137.271 23.456C136.631 24.224 136.271 25.272 136.191 26.6H134.535C134.647 24.76 135.215 23.344 136.239 22.352C137.263 21.344 138.599 20.84 140.247 20.84C141.751 20.84 142.967 21.248 143.895 22.064C144.823 22.88 145.287 24.072 145.287 25.64C145.287 26.968 144.847 28.328 143.967 29.72C143.087 31.096 141.991 32.376 140.679 33.56C139.367 34.728 138.031 35.72 136.671 36.536H145.767V37.928H134.271V36.728Z" fill="#898989"/>
<circle cx="250" cy="30" r="25" fill="#E5E5E5"/>
<path d="M250.656 20.72C251.728 20.72 252.64 20.912 253.392 21.296C254.144 21.664 254.712 22.176 255.096 22.832C255.496 23.488 255.696 24.232 255.696 25.064C255.696 26.12 255.384 27.016 254.76 27.752C254.136 28.488 253.184 28.92 251.904 29.048V29.192C253.184 29.512 254.184 30.016 254.904 30.704C255.64 31.376 256.008 32.312 256.008 33.512C256.008 34.888 255.552 36.008 254.64 36.872C253.744 37.736 252.432 38.168 250.704 38.168C248.992 38.168 247.608 37.728 246.552 36.848C245.496 35.952 244.864 34.656 244.656 32.96H246.312C246.488 34.096 246.944 35.008 247.68 35.696C248.432 36.368 249.424 36.704 250.656 36.704C251.856 36.704 252.768 36.4 253.392 35.792C254.032 35.184 254.352 34.392 254.352 33.416C254.352 32.264 253.896 31.392 252.984 30.8C252.088 30.192 250.816 29.888 249.168 29.888H248.64V28.472H249.168C252.416 28.472 254.04 27.392 254.04 25.232C254.04 24.288 253.736 23.536 253.128 22.976C252.52 22.416 251.68 22.136 250.608 22.136C249.552 22.136 248.656 22.432 247.92 23.024C247.184 23.616 246.744 24.504 246.6 25.688H244.944C245.072 24.12 245.632 22.904 246.624 22.04C247.616 21.16 248.96 20.72 250.656 20.72Z" fill="#898989"/>
</svg>
